<?xml version="1.0" encoding="utf-8"?><!DOCTYPE svg PUBLIC "-//W3C//DTD SVG 1.1//EN" "http://www.w3.org/Graphics/SVG/1.1/DTD/svg11.dtd"><svg width="115" height="85" viewBox="0 0 115 85" xmlns="http://www.w3.org/2000/svg" xmlns:xlink="http://www.w3.org/1999/xlink"><view id="calendar-icon" viewBox="84.5 0 30 34.02"/><svg width="30" height="34.02" viewBox="-3 -3 30 34.02" x="84.5"><path fill="none" stroke="#E2BD50" stroke-width="1.5" stroke-miterlimit="10" d="M18.207 27.245H5.747c-2.75 0-5-2.25-5-5V9.512c0-2.75 2.25-5 5-5h12.46c2.75 0 5 2.25 5 5v12.733c0 2.75-2.25 5-5 5z"/><path fill="#E2BD50" stroke="#fff" stroke-miterlimit="10" d="M16.337 7.202c-.856 0-1.555-.7-1.555-1.555V2.21c0-.855.7-1.554 1.555-1.554.856 0 1.555.7 1.555 1.555v3.437c0 .855-.7 1.555-1.555 1.555zM7.337 7.202c-.856 0-1.555-.7-1.555-1.555V2.21c0-.855.7-1.554 1.555-1.554.856 0 1.555.7 1.555 1.555v3.437c0 .855-.7 1.555-1.555 1.555z"/><circle fill="#E2BD50" cx="6.805" cy="10.7" r="2.034"/><circle fill="#E2BD50" cx="6.805" cy="15.83" r="2.034"/><circle fill="#E2BD50" cx="6.805" cy="20.959" r="2.034"/><circle fill="#E2BD50" cx="11.934" cy="10.7" r="2.034"/><circle fill="#E2BD50" cx="11.934" cy="15.83" r="2.034"/><circle fill="#E2BD50" cx="11.934" cy="20.959" r="2.034"/><circle fill="#E2BD50" cx="17.063" cy="10.7" r="2.034"/><circle fill="#E2BD50" cx="17.063" cy="15.83" r="2.034"/></svg><view id="heading-icon" viewBox="0 0 84.5 84.63"/><svg width="84.5" height="84.63" viewBox="-3 -3 84.5 84.63"><path fill="none" stroke="#E2BD50" stroke-width="2" stroke-miterlimit="10" d="M45.894 4.118L74.13 31.384c4.06 3.92 4.173 10.45.252 14.51L47.116 74.13c-3.92 4.06-10.45 4.173-14.51.252L4.37 47.116c-4.06-3.92-4.173-10.45-.252-14.51L31.384 4.37c3.92-4.06 10.45-4.173 14.51-.252z"/><path fill="#E2BD50" d="M16.578 42.218c-.88 0-1.6-.72-1.6-1.6v-4.5c0-.88.72-1.6 1.6-1.6.88 0 1.6.72 1.6 1.6v4.5c0 .88-.72 1.6-1.6 1.6zM54.56 25.897s-4.537 8.698-8.084 9.753C41.153 37.234 23.4 36.668 18.1 36.718c-.858.008-1.557.693-1.602 1.562-.048.94.684 1.73 1.61 1.732 9.723.018 23.467.78 28.55 2.323 3.515 1.067 7.904 9.61 7.904 9.61.51.635 1.6.267 1.6-.552V26.45c0-.82-1.09-1.187-1.602-.553zM32.81 38.82c-7.463 0-13.512 2.702-13.512 6.033 0 3.332 6.05 6.032 13.51 6.032 7.463 0 13.512-2.7 13.512-6.032 0-3.33-6.05-6.032-13.51-6.032zm.05 10.206c-5.817 0-10.533-1.99-10.533-4.445s4.716-3.716 10.533-3.716c5.817 0 10.533 1.262 10.533 3.717s-4.716 4.446-10.533 4.446z"/></svg></svg>